<svg xmlns="http://www.w3.org/2000/svg" xmlns:xlink="http://www.w3.org/1999/xlink" id="Layer_1" x="0px" y="0px" width="60px" height="60px" viewBox="0 0 60 60" xml:space="preserve">
<g>
	<path d="M42.761,35.827l-2.031-0.833c-0.051-0.021-0.104-0.038-0.156-0.051c-0.082-0.087-0.179-0.162-0.291-0.22   l-3.385-1.773c-0.331-0.173-0.728-0.167-1.053,0.018c-0.325,0.185-0.534,0.521-0.555,0.895l-0.446,7.936h-9.685l-0.446-7.936   c-0.021-0.374-0.23-0.71-0.555-0.895c-0.326-0.186-0.723-0.191-1.053-0.018l-3.385,1.773c-0.101,0.053-0.191,0.12-0.268,0.196   c-0.106,0.012-0.21,0.04-0.311,0.083l-1.921,0.833c0,0,0,0,0,0c-0.161,0.07-0.323,0.114-0.479,0.159   c-0.452,0.131-1.013,0.295-1.483,0.791c-0.56,0.592-0.932,1.398-1.048,2.271l-1.13,8.48c-0.042,0.314,0.054,0.631,0.263,0.87   s0.511,0.375,0.828,0.375h5.828c0.057,0,0.114-0.004,0.169-0.013c0.056,0.009,0.112,0.013,0.17,0.013h19.329   c0.039,0,0.077-0.002,0.115-0.006c0.038,0.004,0.076,0.006,0.114,0.006h5.938c0.317,0,0.619-0.137,0.828-0.375   s0.305-0.556,0.263-0.87l-1.13-8.48C45.511,36.953,43.653,36.192,42.761,35.827z M15.425,46.583l0.964-7.235   c0.055-0.412,0.225-0.795,0.465-1.049c0.059-0.063,0.293-0.13,0.5-0.191c0.241-0.07,0.491-0.146,0.74-0.254l0.441-0.191l0.32,8.92   H15.425z M38.833,46.583H21.057l-0.355-9.892c0.012-0.006,0.024-0.012,0.037-0.018l1.872-0.98l0.409,7.269   C23.052,43.544,23.534,44,24.118,44h11.765c0.583,0,1.065-0.456,1.098-1.039l0.409-7.27l1.8,0.943L38.833,46.583z M41.034,46.583   l0.321-8.954l0.572,0.234c1.321,0.541,1.611,0.939,1.684,1.485l0.964,7.235H41.034z"></path>
	<path d="M29.988,12.085c-2.125,0-4.115,0.67-5.605,1.888c-1.723,1.409-2.634,3.407-2.634,5.779v0.061   c-0.441,0.127-0.825,0.342-1.124,0.638c-0.446,0.44-0.684,1.036-0.671,1.67c0,0.214,0.051,0.421,0.132,0.574   c0.137,0.292,0.406,0.866,2.328,1.304c-0.003,0.037-0.005,0.074-0.005,0.112c0.013,5.934,3.348,10.582,7.592,10.582   c4.245,0,7.58-4.648,7.592-10.582c0-0.037-0.002-0.074-0.005-0.11c1.919-0.434,2.182-0.998,2.306-1.265   c0.092-0.177,0.143-0.365,0.15-0.608h0.001c0.014-0.642-0.223-1.238-0.669-1.678c-0.299-0.295-0.683-0.511-1.124-0.638v-0.061   C38.251,14.719,34.094,12.085,29.988,12.085z M30,32.494c-2.862,0-5.296-3.708-5.389-8.149c1.251,0.131,2.857,0.219,4.926,0.233   l0.931,0c2.067-0.014,3.672-0.102,4.922-0.232C35.296,28.786,32.862,32.494,30,32.494z M30.456,22.377l-0.91,0   c-3.243-0.021-5.371-0.266-6.548-0.504c0.229-0.032,0.445-0.135,0.614-0.298c0.215-0.207,0.336-0.493,0.336-0.792v-1.03   c0-1.69,0.631-3.099,1.826-4.076c0.502-0.411,1.102-0.74,1.76-0.975v3.442c0,0.607,0.493,1.1,1.1,1.1s1.1-0.493,1.1-1.1V14.29   c0.176-0.006,0.352-0.005,0.53,0.001v3.854c0,0.607,0.493,1.1,1.1,1.1s1.1-0.493,1.1-1.1v-3.433   c1.981,0.718,3.585,2.357,3.585,5.042v1.03c0,0.298,0.122,0.584,0.336,0.792c0.169,0.163,0.384,0.267,0.614,0.298   C35.823,22.11,33.696,22.354,30.456,22.377z"></path>
</g>
</svg>