<svg xmlns="http://www.w3.org/2000/svg" xmlns:xlink="http://www.w3.org/1999/xlink" id="Layer_1" x="0px" y="0px"
    width="60px" height="60px" viewBox="0 0 60 60" xml:space="preserve">
    <g>
        <g>
            <path
                d="M47.941,23.372L41.51,13.07c-0.201-0.322-0.554-0.518-0.933-0.518H19.423    c-0.379,0-0.732,0.196-0.933,0.518l-6.431,10.302c-0.212,0.339-0.223,0.767-0.029,1.116s0.562,0.566,0.962,0.566h1.486v20.192    h-0.868c-0.607,0-1.1,0.493-1.1,1.1s0.493,1.1,1.1,1.1h1.965c0.001,0,0.002,0,0.002,0s0.002,0,0.002,0H26.25    c0.001,0,0.002,0,0.002,0s0.002,0,0.002,0h7.49c0.001,0,0.002,0,0.002,0s0.002,0,0.002,0h10.669c0.001,0,0.002,0,0.002,0    s0.002,0,0.002,0h1.965c0.607,0,1.1-0.493,1.1-1.1s-0.493-1.1-1.1-1.1h-0.868V25.054h1.486c0.4,0,0.768-0.217,0.962-0.566    S48.153,23.711,47.941,23.372z M20.033,14.753h19.934l5.058,8.102h-9.126l-5.142-4.875c-0.425-0.402-1.089-0.402-1.514,0    l-5.142,4.875h-9.126L20.033,14.753z M32.647,45.247h-5.294v-7.018c0-1.362,1.188-2.47,2.647-2.47c1.459,0,2.647,1.108,2.647,2.47    V45.247z M34.847,45.247v-7.018c0-2.575-2.175-4.67-4.848-4.67s-4.847,2.095-4.847,4.67v7.018h-8.474V25.054h7.861    c0.282,0,0.552-0.108,0.757-0.302L30,20.294l4.703,4.459c0.205,0.194,0.475,0.302,0.757,0.302h7.861v20.192H34.847z">
            </path>
        </g>
        <g>
            <path
                d="M22.432,35.649h-3.084c-0.607,0-1.1,0.493-1.1,1.1v5.495c0,0.607,0.493,1.1,1.1,1.1h3.084    c0.607,0,1.1-0.493,1.1-1.1v-5.495C23.532,36.141,23.04,35.649,22.432,35.649z M21.332,41.143h-0.884v-3.294h0.884V41.143z">
            </path>
        </g>
        <g>
            <path
                d="M40.652,27.153h-3.084c-0.607,0-1.1,0.493-1.1,1.1v4.363c0,0.607,0.493,1.1,1.1,1.1h3.084    c0.607,0,1.1-0.493,1.1-1.1v-4.363C41.752,27.645,41.26,27.153,40.652,27.153z M39.552,31.515h-0.884v-2.163h0.884V31.515z">
            </path>
        </g>
        <g>
            <path
                d="M40.652,35.649h-3.084c-0.607,0-1.1,0.493-1.1,1.1v5.495c0,0.607,0.493,1.1,1.1,1.1h3.084    c0.607,0,1.1-0.493,1.1-1.1v-5.495C41.752,36.141,41.26,35.649,40.652,35.649z M39.552,41.143h-0.884v-3.294h0.884V41.143z">
            </path>
        </g>
        <g>
            <path
                d="M22.432,27.153h-3.084c-0.607,0-1.1,0.493-1.1,1.1v4.363c0,0.607,0.493,1.1,1.1,1.1h3.084    c0.607,0,1.1-0.493,1.1-1.1v-4.363C23.532,27.645,23.04,27.153,22.432,27.153z M21.332,31.515h-0.884v-2.163h0.884V31.515z">
            </path>
        </g>
        <g>
            <path
                d="M30,23.431c-1.925,0-3.491,1.566-3.491,3.491c0,1.924,1.566,3.49,3.491,3.49s3.491-1.566,3.491-3.49    C33.491,24.997,31.925,23.431,30,23.431z M30,28.212c-0.711,0-1.291-0.579-1.291-1.29s0.579-1.291,1.291-1.291    s1.291,0.579,1.291,1.291S30.711,28.212,30,28.212z">
            </path>
        </g>
    </g>
</svg>