<svg xmlns="http://www.w3.org/2000/svg" xmlns:xlink="http://www.w3.org/1999/xlink" id="Layer_1" x="0px" y="0px"
    width="60px" height="60px" viewBox="0 0 60 60" xml:space="preserve">
    <g>
        <path
            d="M33.843,47.399c-0.025,0-0.05-0.001-0.075-0.002c-0.022,0.001-0.045,0.002-0.067,0.002H13.489   c-0.607,0-1.1-0.493-1.1-1.1v-2.713c0-0.607,0.492-1.1,1.1-1.1s1.1,0.493,1.1,1.1v1.613h18.154v-7.172   c0-0.699,0.716-1.232,1.366-1.067c0.021-0.001,0.042-0.002,0.063-0.002h10.937V23.812H29.886v5.162c0,0.607-0.492,1.1-1.1,1.1   s-1.1-0.493-1.1-1.1v-1.891h-4.404c-0.607,0-1.1-0.493-1.1-1.1s0.492-1.1,1.1-1.1h4.404v-2.171c0-0.607,0.492-1.1,1.1-1.1h16.322   v-6.811H29.886v3.094c0,0.607-0.492,1.1-1.1,1.1s-1.1-0.493-1.1-1.1v-3.094H14.589v10.082h3.36c0.607,0,1.1,0.493,1.1,1.1   s-0.492,1.1-1.1,1.1h-3.36v9.883h13.098v-2.733c0-0.607,0.492-1.1,1.1-1.1s1.1,0.493,1.1,1.1v3.825   c0,0.633-0.537,1.145-1.177,1.097c-0.051,0.007-0.103,0.011-0.155,0.011H13.489c-0.607,0-1.1-0.493-1.1-1.1   c0-0.002,0-0.005,0-0.007V13.701c0-0.607,0.492-1.1,1.1-1.1h32.719c0.607,0,1.1,0.493,1.1,1.1v24.357c0,0.607-0.492,1.1-1.1,1.1   H34.942v7.142C34.942,46.907,34.45,47.399,33.843,47.399z">
        </path>
    </g>
</svg>