<svg xmlns="http://www.w3.org/2000/svg" xmlns:xlink="http://www.w3.org/1999/xlink" id="Layer_1" x="0px" y="0px" width="60px" height="60px" viewBox="0 0 60 60" xml:space="preserve">
<g>
	<path d="M46.894,12.51c-0.412-0.169-0.884-0.076-1.199,0.239L12.749,45.696c-0.314,0.314-0.409,0.787-0.238,1.198   c0.17,0.411,0.571,0.679,1.016,0.679h32.947c0.607,0,1.1-0.492,1.1-1.1V13.526C47.573,13.081,47.305,12.681,46.894,12.51z    M16.182,45.374l29.191-29.192v5.377h-2.566c-0.607,0-1.1,0.492-1.1,1.1s0.493,1.1,1.1,1.1h2.566v2.574H44.2   c-0.607,0-1.1,0.492-1.1,1.1s0.493,1.1,1.1,1.1h1.173v2.575h-2.566c-0.607,0-1.1,0.492-1.1,1.1s0.493,1.1,1.1,1.1h2.566v2.575H44.2   c-0.607,0-1.1,0.492-1.1,1.1s0.493,1.1,1.1,1.1h1.173v2.575h-2.566c-0.607,0-1.1,0.492-1.1,1.1s0.493,1.1,1.1,1.1h2.566v2.52   H16.182z"></path>
	<path d="M39.442,29.631c-0.412-0.168-0.884-0.077-1.199,0.239l-8.374,8.374c-0.314,0.314-0.409,0.787-0.238,1.198   c0.17,0.411,0.571,0.679,1.016,0.679h8.374c0.607,0,1.1-0.492,1.1-1.1v-8.374C40.121,30.202,39.853,29.802,39.442,29.631z    M37.921,37.922h-4.618l4.618-4.619V37.922z"></path>
	<path d="M14.283,36.785c0.111,0,0.224-0.017,0.333-0.051l4.715-1.496c0.168-0.054,0.321-0.146,0.445-0.271   l13.977-13.978c0.038-0.029,0.083-0.043,0.118-0.078c0.035-0.035,0.049-0.08,0.078-0.118l2.533-2.533   c0.206-0.206,0.322-0.485,0.322-0.777s-0.116-0.571-0.322-0.778l-3.219-3.219c-0.43-0.428-1.126-0.428-1.556,0L15.001,30.192   c-0.125,0.124-0.217,0.276-0.271,0.444l-1.496,4.716c-0.125,0.392-0.02,0.82,0.271,1.11C13.715,36.673,13.996,36.785,14.283,36.785   z M32.485,15.82l1.664,1.663l-1.075,1.075l-1.664-1.663L32.485,15.82z M16.746,31.558l13.107-13.107l1.664,1.663L18.41,33.222   l-2.437,0.773L16.746,31.558z"></path>
</g>
</svg>