<svg xmlns="http://www.w3.org/2000/svg" xmlns:xlink="http://www.w3.org/1999/xlink" id="Layer_1" x="0px" y="0px" width="60px" height="60px" viewBox="0 0 60 60" xml:space="preserve">
<path d="M12.992,46.431h34.016c0.607,0,1.1-0.493,1.1-1.1v-7.666c0-0.607-0.492-1.1-1.1-1.1h-8.642V31.1h8.642  c0.607,0,1.1-0.493,1.1-1.1v-7.665c0-0.607-0.492-1.1-1.1-1.1h-8.642v-6.565c0-0.607-0.492-1.1-1.1-1.1H12.992  c-0.607,0-1.1,0.493-1.1,1.1V30c0,0,0,0,0,0v15.331C11.893,45.938,12.385,46.431,12.992,46.431z M32.329,44.231H20.66v-5.465h11.669  V44.231z M26.229,36.565V31.1h9.938v5.465h-2.738H26.229z M20.66,28.9v-5.465h11.669V28.9H20.66z M45.908,38.765v5.465h-11.38  v-5.465H45.908z M45.908,23.435V28.9h-11.38v-5.465H45.908z M26.229,15.769h9.938v5.465h-2.738h-7.2V15.769z M14.092,15.769h9.938  v5.465h-4.469h-5.469V15.769z M14.092,23.435h4.369V28.9h-4.369V23.435z M14.092,31.1h9.938v5.465h-4.469h-5.469V31.1z   M14.092,38.765h4.369v5.465h-4.369V38.765z"></path>
</svg>