<svg xmlns="http://www.w3.org/2000/svg" xmlns:xlink="http://www.w3.org/1999/xlink" id="Layer_1" x="0px" y="0px" width="60px" height="60px" viewBox="0 0 60 60" xml:space="preserve">
<g>
	<path d="M41.018,34.101c-2.714,0-5.032,1.729-5.912,4.143l-5.72-1.084c-0.277-0.054-0.561,0.002-0.796,0.152   l-5.161,3.286l-2.332-11.708c-0.09-0.452-0.452-0.799-0.907-0.872l-2.965-0.47c-0.012-0.411-0.151-0.807-0.405-1.141   c-0.322-0.424-0.79-0.697-1.314-0.768l-3.638-0.499c-1.094-0.15-2.093,0.615-2.242,1.702l-0.136,0.992   c-0.072,0.525,0.065,1.048,0.387,1.472c0.322,0.424,0.789,0.698,1.314,0.77l3.639,0.498c0.781,0.107,1.52-0.257,1.93-0.873   l2.33,0.37l2.241,11.254c0.044,0.318,0.167,0.62,0.355,0.874c0.304,0.413,0.749,0.682,1.256,0.758   c0.506,0.076,1.012-0.049,1.357-0.31l5.104-3.246l5.325,1.01c0.011,3.459,2.827,6.27,6.289,6.27c3.469,0,6.29-2.822,6.29-6.29   S44.486,34.101,41.018,34.101z M14.92,28.366l-3.223-0.441l0.079-0.577l3.223,0.442L14.92,28.366z M41.018,44.481   c-2.105,0-3.845-1.6-4.065-3.648l3.672,0.696c0.603,0.117,1.173-0.279,1.286-0.875c0.113-0.597-0.279-1.173-0.876-1.286   l-3.723-0.706c0.653-1.393,2.068-2.36,3.706-2.36c2.256,0,4.091,1.834,4.091,4.09S43.273,44.481,41.018,44.481z"></path>
	<path d="M22.631,33.505c0.143,0.907,0.819,1.582,1.725,1.72l10.242,1.565c0.09,0.014,0.176,0.02,0.258,0.02   c0.898,0,1.321-0.769,1.489-1.074c0.034-0.063,0.067-0.13,0.109-0.188l8.5-11.618c0.392-0.537,0.464-1.206,0.189-1.746   c-0.257-0.504-0.764-0.805-1.357-0.805H42.84c-0.043-0.067-0.093-0.13-0.15-0.188l-8.098-8.165   c-0.813-0.814-2.235-0.818-3.055,0.003l-8.095,8.162c-0.058,0.058-0.107,0.122-0.15,0.188h-0.336c-0.563,0-1.118,0.254-1.483,0.681   c-0.335,0.391-0.483,0.897-0.407,1.392L22.631,33.505z M33.032,14.578l6.746,6.802H26.343L33.032,14.578z M42.485,23.58   l-7.807,10.67c-0.069,0.094-0.131,0.195-0.19,0.297l-9.699-1.482l-1.478-9.485H42.485z"></path>
</g>
</svg>