<svg width="140" height="140" viewBox="0 0 140 140" fill="none" xmlns="http://www.w3.org/2000/svg">
<rect width="140" height="140" fill="#EEEAE8" fill-opacity="0.01"/>
<path d="M99.1623 79.8227C99.1623 92.8571 88.5825 103.424 75.5317 103.424C62.4808 103.424 51.901 92.8571 51.901 79.8227C51.901 79.0097 51.9929 78.1247 52.1653 77.1797C53.6346 69.1274 60.9475 56.7272 67.0063 47.4967C71.635 40.4451 75.5317 35.2433 75.5317 35.2433C75.5317 35.2433 99.1623 66.7883 99.1623 79.8227Z" fill="#E3C6BD" fill-opacity="0.5"/>
<path d="M71.2704 59.8265C71.2704 69.4542 63.4656 77.2589 53.8379 77.2589C53.2737 77.2589 52.7158 77.2321 52.1653 77.1797C43.3223 76.338 36.4055 68.89 36.4055 59.8265C36.4055 50.1988 53.8379 26.8985 53.8379 26.8985C53.8379 26.8985 61.8455 37.6014 67.0063 47.4967C69.4601 52.2016 71.2704 56.724 71.2704 59.8265Z" fill="#E3C6BD" fill-opacity="0.5"/>
<path fill-rule="evenodd" clip-rule="evenodd" d="M75.5317 103.424C88.5825 103.424 99.1623 92.8571 99.1623 79.8227C99.1623 66.7883 75.5317 35.2433 75.5317 35.2433C75.5317 35.2433 71.635 40.4451 67.0063 47.4967C61.8455 37.6014 53.8379 26.8985 53.8379 26.8985C53.8379 26.8985 36.4055 50.1988 36.4055 59.8265C36.4055 68.89 43.3223 76.338 52.1653 77.1797C51.9929 78.1247 51.901 79.0097 51.901 79.8227C51.901 92.8571 62.4808 103.424 75.5317 103.424Z" fill="#E3C6BD" fill-opacity="0.5"/>
<path d="M102.26 82.9218C102.26 95.9563 91.6802 106.523 78.6293 106.523C65.5785 106.523 54.9986 95.9563 54.9986 82.9218C54.9986 69.8874 78.6293 38.3424 78.6293 38.3424C78.6293 38.3424 102.26 69.8874 102.26 82.9218Z" stroke="#153049" stroke-width="2"/>
<path d="M74.3681 62.9256C74.3681 72.5533 66.5633 80.3581 56.9356 80.3581C47.3079 80.3581 39.5031 72.5533 39.5031 62.9256C39.5031 53.2979 56.9356 29.9976 56.9356 29.9976C56.9356 29.9976 74.3681 53.2979 74.3681 62.9256Z" stroke="#153049" stroke-width="2"/>
<path d="M124.341 69.7208C124.341 99.8876 99.8861 124.343 69.7194 124.343C39.5526 124.343 15.0977 99.8876 15.0977 69.7208C15.0977 39.5541 39.5526 15.0991 69.7194 15.0991C99.8861 15.0991 124.341 39.5541 124.341 69.7208Z" stroke="#153049" stroke-width="2"/>
</svg>
