<svg width="40" height="26" viewBox="0 0 40 26" fill="none" xmlns="http://www.w3.org/2000/svg">
<path d="M31.5009 9.16994C32.2193 5.41412 33.5125 2.69438 34.5182 1.14024C34.9493 0.492688 34.0872 -0.284373 33.3688 0.104161C25.0352 4.50754 21.2994 10.8536 20.8684 16.034C20.4373 20.4374 23.8857 24.9703 28.9146 25.8769C33.9435 26.6539 38.8287 23.6752 39.8345 19.1423C40.8403 14.3504 37.1045 9.68798 31.5009 9.16994Z" fill="#EEEAE8"/>
<path d="M10.6689 9.16994C11.3873 5.41412 12.6804 2.69438 13.6862 1.14024C14.1172 0.492688 13.2551 -0.284373 12.5367 0.104161C4.20313 4.50754 0.467374 10.8536 0.036325 16.034C-0.394724 20.4374 3.05366 24.9703 8.08256 25.8769C13.1115 26.6539 17.9967 23.6752 19.0025 19.1423C20.0082 14.3504 16.2725 9.68798 10.6689 9.16994Z" fill="#EEEAE8"/>
</svg>
