<svg width="13" height="12" viewBox="0 0 13 12" fill="none" xmlns="http://www.w3.org/2000/svg">
<path d="M12.0515 1.17881C11.4103 0.418634 10.5208 0 9.54688 0C8.1771 0 7.30988 0.854778 6.8236 1.57187C6.69744 1.75795 6.59011 1.94453 6.5 2.1201C6.40989 1.94453 6.30259 1.75795 6.1764 1.57187C5.69011 0.854778 4.8229 0 3.45312 0C2.47919 0 1.58968 0.418661 0.948467 1.17884C0.336857 1.90399 0 2.87518 0 3.91349C0 5.04372 0.422322 6.09495 1.32907 7.22171C2.13946 8.22876 3.30533 9.26681 4.65537 10.4688C5.15844 10.9168 5.67866 11.38 6.23251 11.8863L6.24914 11.9015C6.32094 11.9672 6.41047 12 6.5 12C6.58953 12 6.67905 11.9672 6.75086 11.9015L6.76749 11.8863C7.32134 11.38 7.84156 10.9168 8.34471 10.4688C9.69467 9.26683 10.8605 8.22879 11.6709 7.22171C12.5777 6.09492 13 5.04372 13 3.91349C13 2.87518 12.6631 1.90399 12.0515 1.17881Z" fill="#CD281B"/>
</svg>
