<svg width="40" height="26" viewBox="0 0 40 26" fill="none" xmlns="http://www.w3.org/2000/svg">
<path d="M8.49911 16.8301C7.78069 20.5859 6.48755 23.3056 5.48177 24.8598C5.05072 25.5073 5.91281 26.2844 6.63123 25.8958C14.9648 21.4925 18.7006 15.1464 19.1316 9.96598C19.5627 5.5626 16.1143 1.02971 11.0854 0.123137C6.05649 -0.653931 1.17128 2.32482 0.165497 6.85771C-0.840282 11.6496 2.89548 16.312 8.49911 16.8301Z" fill="#EEEAE8"/>
<path d="M29.3311 16.8301C28.6127 20.5859 27.3196 23.3056 26.3138 24.8598C25.8828 25.5073 26.7448 26.2844 27.4633 25.8958C35.7969 21.4925 39.5326 15.1464 39.9637 9.96598C40.3947 5.5626 36.9463 1.02971 31.9174 0.123137C26.8885 -0.653931 22.0033 2.32482 20.9975 6.85771C19.9917 11.6496 23.7275 16.312 29.3311 16.8301Z" fill="#EEEAE8"/>
</svg>
