<svg width="140" height="140" viewBox="0 0 140 140" fill="none" xmlns="http://www.w3.org/2000/svg">
<rect width="140" height="140" fill="#EEEAE8" fill-opacity="0.01"/>
<path fill-rule="evenodd" clip-rule="evenodd" d="M26.9771 31.3159C23.4828 31.3159 22.0798 35.2867 21.815 37.2721C21.815 40.3758 18.365 42.1856 15.4537 43.7129C12.7777 45.1167 10.5568 46.2818 11.888 47.9934C7.52012 47.9934 4.74042 51.0907 4.74042 52.3614C7.43817 54.3847 10.4939 56.05 13.8734 57.4144C23.7176 61.3886 36.309 62.8092 50.8023 63.0847C54.7688 63.1602 58.8777 63.1498 63.1118 63.0826C77.0854 62.8608 87.226 59.3997 93.2903 56.1595C95.9113 54.7591 97.7709 53.3999 98.8494 52.3614L91.7019 47.9934C90.9666 47.6433 90.0311 47.106 89.047 46.4051C86.3113 44.4566 83.1997 41.2438 82.966 37.2721C82.569 30.5217 78.9952 28.9334 76.6127 28.1392C75.3796 27.7282 74.3592 26.0407 73.1663 24.0678C72.0542 22.2288 70.7922 20.1417 69.0681 18.6092C65.4943 15.4325 63.1118 17.4179 59.9351 20.5946C57.8691 22.6607 54.7952 22.8791 51.5874 23.107C49.8631 23.2295 48.1002 23.3548 46.4343 23.7713C43.9016 24.4045 42.9394 25.9351 41.9379 27.5284C41.0551 28.9327 40.1418 30.3858 38.0955 31.3159C35.2656 32.6022 33.2691 32.2218 31.0261 31.7943C29.807 31.562 28.5152 31.3159 26.9771 31.3159ZM100.041 57.6274C99.8877 60.0991 99.5779 62.7855 99.0437 65.4651C98.6961 67.209 98.2533 68.95 97.6969 70.6272C96.3977 74.543 94.4786 78.1108 91.7019 80.5543C89.5841 79.4954 83.6013 77.6953 76.6127 78.966C67.8769 80.5543 59.9351 88.496 59.9351 94.8494C59.9351 97.1756 60.503 99.0287 61.1767 100.409C61.8829 101.855 62.7054 102.782 63.1119 103.188C63.906 103.982 73.039 113.115 84.9515 110.733C85.3275 111.247 85.7252 111.732 86.1428 112.189C94.105 120.895 109.679 120.35 119.498 116.292C129.425 112.189 133.396 107.953 134.984 100.409C135.38 98.5289 135.406 96.6492 135.179 94.8494C135.076 94.0365 134.922 93.2399 134.727 92.4669C134.408 91.2015 133.979 89.9995 133.488 88.8931C132.277 86.1654 130.687 84.0188 129.425 82.9368C127.406 81.2063 124.339 78.8472 118.704 78.2944C118.704 78.2056 118.706 78.0965 118.709 77.9679C118.743 76.5044 118.836 72.513 115.924 67.0535C112.747 61.0972 104.409 58.1222 100.041 57.6274Z" fill="#E3C6BD" fill-opacity="0.7"/>
<path d="M24.9908 39.6547C25.2556 37.6692 26.6586 33.6984 30.1529 33.6984C34.5209 33.6984 36.9034 35.6838 41.2713 33.6984C45.6392 31.713 44.845 27.345 49.6101 26.1538C54.3751 24.9625 59.9342 26.1538 63.1109 22.9771C66.2876 19.8004 68.6701 17.815 72.2439 20.9917C75.8176 24.1684 77.406 29.7276 79.7885 30.5217M24.9908 39.6547C17.4889 40.5549 5.76908 43.4507 4.87758 48.7876M24.9908 39.6547C24.9908 45.6109 12.2842 46.8022 15.0638 50.3759M24.9908 39.6547C26.9763 38.7281 31.3442 37.431 32.9326 39.6547C34.918 42.4343 33.3297 47.1993 37.3005 48.7876C41.2713 50.3759 44.448 48.2088 48.0218 50.3759M79.7885 30.5217C82.171 31.3159 85.7447 32.9042 86.1418 39.6547M79.7885 30.5217C78.5972 36.8751 72.2439 33.6984 66.2876 32.5071C61.5226 31.5541 59.0078 36.0809 58.346 38.4634M86.1418 39.6547C92.9991 41.5463 103.614 46.4051 103.217 52.5431M86.1418 39.6547C86.3754 43.6263 89.4871 46.8391 92.2228 48.7876M94.8777 50.3759L102.025 54.7439M94.8777 50.3759C96.1483 51.6466 96.466 56.3494 96.4661 58.542M94.8777 50.3759C94.1423 50.0258 93.2069 49.4885 92.2228 48.7876M102.025 54.7439C102.636 53.9977 103.022 53.2629 103.217 52.5431M102.025 54.7439C100.947 55.7824 99.0871 57.1416 96.4661 58.542M7.9162 54.7439C5.43281 52.4933 4.58938 50.5129 4.87758 48.7876M7.9162 54.7439C10.614 56.7672 13.6697 58.4325 17.0492 59.7969M7.9162 54.7439C7.9162 53.4732 10.6959 50.3759 15.0638 50.3759M103.217 52.5431C103.36 54.4958 103.396 57.1046 103.217 60.0099M94.8777 82.9369C96.8632 83.9296 97.6574 84.9223 98.4515 85.7164M94.8777 82.9369C92.7599 81.878 86.7771 80.0778 79.7885 81.3485C71.0527 82.9369 63.1109 90.8785 63.1109 97.2319C63.1109 101.997 65.4935 104.776 66.2877 105.571C67.0818 106.365 76.2148 115.498 88.1273 113.115M94.8777 82.9369C97.6544 80.4933 99.5735 76.9255 100.873 73.0097M4.87758 48.7876C3.50797 56.8616 2.83344 77.2983 15.8578 89.6873C32.1383 105.174 52.7868 105.571 64.3524 102.791M19.8288 69.436C33.0649 73.1421 64.3524 79.3631 89.3186 69.436M96.4661 58.542C90.4018 61.7822 80.2612 65.2433 66.2876 65.4651C62.0535 65.5324 57.9446 65.5427 53.978 65.4673M92.2228 48.7876C90.99 48.5229 87.3331 47.7552 82.5681 46.8022C76.6119 45.6109 78.5973 42.8313 74.2293 42.4343C69.8614 42.0372 63.1109 45.0321 63.1109 48.7876M63.1109 48.7876C63.1109 51.792 59.9343 52.5431 58.346 52.5431M63.1109 48.7876L56.7576 46.8022M72.2439 58.542C74.7587 57.2648 79.7885 54.2768 79.7885 52.5431M41.2713 58.542C39.0212 58.0096 34.2032 56.5045 32.9326 54.7439M17.0492 59.7969C17.3139 57.8478 17.2874 53.2349 15.0638 50.3759M17.0492 59.7969C26.8934 63.7712 39.4847 65.1917 53.978 65.4673M48.0218 50.3759C51.5955 52.5431 57.1547 55.1927 53.978 58.542C51.4367 61.2215 52.9192 64.2753 53.978 65.4673M48.0218 50.3759C46.3011 48.92 42.7009 44.8962 42.0655 40.4488M98.4515 85.7164C100.437 84.8264 105.758 82.2221 114.335 80.9514M98.4515 85.7164C96.0477 86.7941 94.0937 88.1658 92.5065 89.6873M88.1273 113.115C89.9804 106.63 97.6574 96.4377 108.776 92.0698M88.1273 113.115C88.5033 113.63 88.901 114.115 89.3186 114.571M88.1273 113.115C87.7265 112.314 87.1234 110.966 86.6243 109.542M85.7448 105.571C89.3186 98.0261 93.6865 95.3788 97.2602 93.261M85.7448 105.571C85.7448 103.662 86.3064 97.4481 90.3859 92.0698M85.7448 105.571C85.7448 106.672 86.1345 108.144 86.6243 109.542M114.335 80.9514C115.608 80.7628 116.797 80.647 117.909 80.5933M114.335 80.9514C113.805 79.4955 112.27 76.3453 110.364 75.3923M89.3186 114.571C97.2807 123.277 112.855 122.733 122.674 118.674C132.601 114.571 136.572 110.336 138.16 102.791C138.556 100.911 138.582 99.0317 138.355 97.2319M89.3186 114.571C93.2894 114.218 102.025 112.401 105.202 107.953M123.468 107.159C128.098 105.571 137.557 101.362 138.355 97.2319M138.355 97.2319C138.252 96.419 138.098 95.6224 137.903 94.8494M137.903 94.8494C135.341 94.3199 129.027 94.0552 123.468 97.629M137.903 94.8494C137.584 93.584 137.155 92.382 136.664 91.2756M136.664 91.2756C135.453 88.5479 133.863 86.4013 132.601 85.3194C130.582 83.5888 127.515 81.2297 121.879 80.6769M136.664 91.2756C129.027 87.3048 121.482 87.7019 112.747 91.2756M117.909 80.5933C117.512 77.9331 116.4 72.3744 115.129 71.4214M117.909 80.5933C119.359 80.5233 120.678 80.5591 121.879 80.6769M111.158 71.8185C109.832 70.6272 106.187 68.1653 102.22 67.8476M102.22 67.8476C101.872 69.5915 101.429 71.3325 100.873 73.0097M102.22 67.8476C102.754 65.168 103.063 62.4816 103.217 60.0099M106.79 75.3923C106.022 74.5981 103.763 73.0097 100.873 73.0097M103.217 60.0099C107.584 60.5047 115.923 63.4797 119.1 69.436C122.268 75.3753 121.879 79.5772 121.879 80.6769M92.5065 89.6873C90.6497 88.496 85.8243 86.1929 81.3769 86.5106M92.5065 89.6873C91.7109 90.4499 91.0075 91.2502 90.3859 92.0698M90.3859 92.0698C86.0593 91.2756 76.3737 90.2432 72.244 92.4669M86.6243 109.542C83.2868 109.806 75.8177 109.303 72.6411 105.174" stroke="#153049" stroke-width="2" stroke-linecap="round"/>
</svg>
